<svg width="109" height="26" viewBox="0 0 109 26" fill="none" xmlns="http://www.w3.org/2000/svg">
<g clip-path="url(#clip0)">
<rect width="109" height="26" fill="white"/>
<path d="M5.27344 16.5762V25.5938H0V0H9.98438C11.9062 0 13.5938 0.351562 15.0469 1.05469C16.5117 1.75781 17.6367 2.75977 18.4219 4.06055C19.207 5.34961 19.5996 6.82031 19.5996 8.47266C19.5996 10.9805 18.7383 12.9609 17.0156 14.4141C15.3047 15.8555 12.9316 16.5762 9.89648 16.5762H5.27344ZM5.27344 12.3047H9.98438C11.3789 12.3047 12.4395 11.9766 13.166 11.3203C13.9043 10.6641 14.2734 9.72656 14.2734 8.50781C14.2734 7.25391 13.9043 6.24023 13.166 5.4668C12.4277 4.69336 11.4082 4.29492 10.1074 4.27148H5.27344V12.3047Z" fill="#A06CF8"/>
<path d="M28.5117 21.3574H39.709V25.5938H23.2383V0H28.5117V21.3574Z" fill="#A06CF8"/>
<path d="M57.5508 20.3203H48.3047L46.5469 25.5938H40.9395L50.4668 0H55.3535L64.9336 25.5938H59.3262L57.5508 20.3203ZM49.7285 16.0488H56.127L52.9102 6.46875L49.7285 16.0488Z" fill="#A06CF8"/>
<path d="M72.9316 25.5938H67.6582V0H72.9316V25.5938Z" fill="#A06CF8"/>
<path d="M98.6484 25.5938H93.375L83.1094 8.75391V25.5938H77.8359V0H83.1094L93.3926 16.875V0H98.6484V25.5938Z" fill="#A06CF8"/>
<path d="M103.184 23.0977C103.184 22.2891 103.453 21.6328 103.992 21.1289C104.543 20.625 105.229 20.373 106.049 20.373C106.881 20.373 107.566 20.625 108.105 21.1289C108.656 21.6328 108.932 22.2891 108.932 23.0977C108.932 23.8945 108.662 24.5449 108.123 25.0488C107.584 25.541 106.893 25.7871 106.049 25.7871C105.217 25.7871 104.531 25.541 103.992 25.0488C103.453 24.5449 103.184 23.8945 103.184 23.0977Z" fill="#A06CF8"/>
</g>
<defs>
<clipPath id="clip0">
<rect width="109" height="26" fill="white"/>
</clipPath>
</defs>
</svg>
